<svg width="120" height="26" viewBox="0 0 120 26" fill="none" xmlns="http://www.w3.org/2000/svg">
    <path fill-rule="evenodd" clip-rule="evenodd" d="M113.123 20.4545C115.693 20.4545 117.647 19.6373 118.986 18.0031L115.602 16.3654C115.471 16.4399 115.336 16.5057 115.197 16.5624C114.569 16.8065 113.899 16.9246 113.226 16.9101C112.149 16.9101 111.25 16.6459 110.53 16.0988C109.808 15.5558 109.318 14.7536 109.159 13.8561H119.923C119.944 13.5295 119.962 13.2701 119.975 13.0779C119.991 12.839 120 12.7037 120 12.6715C120 11.086 119.679 9.69746 119.036 8.49322C118.427 7.3345 117.503 6.37719 116.375 5.73472C113.978 4.43622 111.097 4.45323 108.715 5.77992C107.57 6.44082 106.628 7.41095 105.994 8.58247C105.324 9.8162 104.981 11.2059 105.001 12.6147C105.001 14.1261 105.338 15.4737 106.012 16.6575C106.677 17.8483 107.669 18.8178 108.867 19.4484C110.099 20.1172 111.524 20.4545 113.123 20.4545ZM109.105 11.2806C109.246 10.3009 109.634 9.52817 110.269 8.96257C110.904 8.39541 111.688 8.11106 112.623 8.10952C113.479 8.08693 114.312 8.39609 114.951 8.97416C115.586 9.54981 115.973 10.3186 116.115 11.2806H109.105Z" fill="#3BA1C4"/>
    <path d="M12.7177 6.85707C13.7846 7.97634 14.3181 9.63617 14.3181 11.8366V20.4522H10.2576V12.5077C10.2576 11.3143 10.0144 10.4237 9.52816 9.83583C9.0419 9.24794 8.33836 8.95438 7.41754 8.95514C6.39407 8.95514 5.57851 9.29527 4.97087 9.97554C4.36324 10.6558 4.05942 11.6674 4.05942 13.0104V20.4545H0V6.66123L3.8796 4.77274V7.16513C4.42647 6.52394 5.11261 6.02161 5.88346 5.69809C6.7165 5.34529 7.61124 5.16879 8.51331 5.17929C10.2486 5.17853 11.65 5.73779 12.7177 6.85707Z" fill="white"/>
    <path d="M17.7255 6.66164V20.4545H21.8163V4.77274L17.7255 6.66164Z" fill="white"/>
    <path d="M21.8163 0V3.55729L17.7255 5.45451V1.89837L21.8163 0Z" fill="white"/>
    <path d="M42.2742 1.90247V5.45451L46.3651 3.55204V0L42.2742 1.90247Z" fill="white"/>
    <path d="M37.2599 6.85707C38.3269 7.97634 38.8603 9.63617 38.8603 11.8366V20.4522H34.7998V12.5077C34.7998 11.3143 34.5567 10.4237 34.0704 9.83583C33.5841 9.24794 32.8813 8.95438 31.962 8.95514C30.9378 8.95514 30.1222 9.29527 29.5154 9.97554C28.9085 10.6558 28.6046 11.6674 28.6039 13.0104V20.4545H24.5422V6.66123L28.4218 4.77274V7.16513C28.9687 6.52394 29.6548 6.02161 30.4257 5.69809C31.2604 5.34414 32.1571 5.16723 33.0612 5.17815C34.7927 5.17815 36.1923 5.73779 37.2599 6.85707Z" fill="white"/>
    <path d="M46.3635 4.77274V20.271C46.3635 22.0143 45.8816 23.3896 44.9179 24.3969C43.9542 25.4042 42.607 25.9082 40.8764 25.909C39.3985 25.909 38.273 25.6316 37.4999 25.0768L38.6328 21.9389C39.1197 22.2898 39.7143 22.4649 40.4167 22.4641C40.9581 22.4641 41.3792 22.2856 41.6873 21.9241C41.9953 21.5626 42.1469 21.0214 42.1469 20.2995V6.65659L46.3635 4.77274Z" fill="white"/>
    <path fill-rule="evenodd" clip-rule="evenodd" d="M64.0873 20.2336V6.6349L59.9122 4.77274V6.96578C58.877 5.77026 57.441 5.1725 55.6041 5.1725C54.3135 5.15552 53.0422 5.47976 51.9246 6.11092C50.8202 6.74331 49.9242 7.67166 49.3425 8.78617C48.7187 9.94329 48.4064 11.2856 48.4056 12.8131C48.4048 14.3407 48.7172 15.683 49.3425 16.8401C49.924 17.9551 50.82 18.8838 51.9246 19.5165C53.0423 20.1473 54.3136 20.4711 55.6041 20.4538C57.5658 20.4553 59.0642 19.8116 60.0993 18.5227V20.2336H64.0873ZM59.9889 12.8131C59.9889 14.0644 59.6423 15.0619 58.9492 15.8057C58.2857 16.5369 57.3264 16.9455 56.3267 16.9225C55.2538 16.9218 54.3708 16.5495 53.6776 15.8057C52.9845 15.0619 52.6379 14.0644 52.6379 12.8131C52.6348 11.5626 52.9814 10.5651 53.6776 9.82055C54.3739 9.07598 55.2569 8.7037 56.3267 8.7037C57.3264 8.68077 58.2857 9.0893 58.9492 9.82055C59.6423 10.5644 59.9889 11.5619 59.9889 12.8131Z" fill="white"/>
    <path fill-rule="evenodd" clip-rule="evenodd" d="M67.4529 15.6331C68.3142 17.1161 69.5802 18.3401 71.1119 19.1708C72.6698 20.0265 74.419 20.4544 76.3595 20.4544C78.3001 20.4544 80.0443 20.0254 81.5922 19.1675C83.1204 18.3323 84.3853 17.1094 85.2512 15.6298C86.1412 14.1293 86.5862 12.4409 86.5862 10.5647C86.5862 8.68856 86.1412 6.99985 85.2512 5.4986C84.3845 4.0208 83.1197 2.79946 81.5922 1.96538C80.0443 1.10891 78.3001 0.68105 76.3595 0.681794C74.419 0.682541 72.6698 1.1104 71.1119 1.96538C69.581 2.79502 68.315 4.01742 67.4529 5.4986C66.5721 7.00283 66.1317 8.69266 66.1317 10.5681C66.1317 12.4435 66.5721 14.1319 67.4529 15.6331ZM81.4492 13.7357C80.9708 14.6337 80.2449 15.3854 79.3522 15.907V15.9059C77.5017 16.9435 75.2207 16.9435 73.3702 15.9059C72.4776 15.3846 71.752 14.6328 71.2744 13.7345C70.7543 12.756 70.4925 11.6677 70.5124 10.5669C70.4925 9.46622 70.7543 8.37788 71.2744 7.39935C71.7522 6.50101 72.4778 5.74894 73.3702 5.22687C75.2207 4.18931 77.5017 4.18931 79.3522 5.22687C80.2447 5.74919 80.9706 6.50117 81.4492 7.39935C81.9685 8.37849 82.2299 9.46711 82.21 10.5681C82.2298 11.6686 81.9684 12.7569 81.4492 13.7357Z" fill="#3BA1C4"/>
    <path d="M101.354 6.85707C102.419 7.97634 102.951 9.63617 102.951 11.8366V20.4522H98.8922V12.5077C98.8922 11.3143 98.6494 10.4237 98.1638 9.83583C97.6781 9.24794 96.9752 8.95438 96.0549 8.95514C95.0304 8.95514 94.2147 9.29527 93.6077 9.97554C93.0006 10.6558 92.6964 11.6674 92.6949 13.0104V20.4545H88.6334V6.66123L92.5139 4.77274V7.16513C93.0615 6.52365 93.7486 6.0213 94.5205 5.69809C95.3537 5.3452 96.2486 5.16869 97.1509 5.17929C98.8836 5.17853 100.285 5.73779 101.354 6.85707Z" fill="#3BA1C4"/>
</svg>
