<svg width="14" height="4" viewBox="0 0 14 4" fill="none" xmlns="http://www.w3.org/2000/svg">
    <path d="M10.5 2C10.5 1.1875 11.1562 0.5 12 0.5C12.8125 0.5 13.5 1.1875 13.5 2C13.5 2.84375 12.8125 3.5 12 3.5C11.1562 3.5 10.5 2.84375 10.5 2ZM5.5 2C5.5 1.1875 6.15625 0.5 7 0.5C7.8125 0.5 8.5 1.1875 8.5 2C8.5 2.84375 7.8125 3.5 7 3.5C6.15625 3.5 5.5 2.84375 5.5 2ZM3.5 2C3.5 2.84375 2.8125 3.5 2 3.5C1.15625 3.5 0.5 2.84375 0.5 2C0.5 1.1875 1.15625 0.5 2 0.5C2.8125 0.5 3.5 1.1875 3.5 2Z" fill="#595766"/>
</svg>
